<?xml version="1.0" encoding="utf-8"?>
<svg viewBox="0 0 33 31.59" xmlns="http://www.w3.org/2000/svg">
  <defs>
    <style>.cls-1,.cls-2{fill:#005696;}.cls-2{fill-rule:evenodd;}</style>
  </defs>
  <path class="cls-2" d="M18.21,5.2h3.54L18.89,7.29Zm-3.39,0H11.27l2.87,2.08ZM10,4.75h5L16.51,0l1.54,4.75h5L19,7.69l1.54,4.75-4-2.94-4,2.94L14,7.69Z" style="fill: rgb(255, 255, 255);" transform="matrix(0.9999999999999999, 0, 0, 0.9999999999999999, -8.881784197001252e-16, -8.881784197001252e-16)"/>
  <path class="cls-2" d="M5.47,12l1.1-3.37L7.67,12Zm-1,3.23-1.1,3.37L6.2,16.5ZM2.49,19.67,4,14.92,0,12H5L6.54,7.24,8.08,12h5L9,14.93l1.54,4.75-4-2.94Z" style="fill: rgb(255, 255, 255);" transform="matrix(0.9999999999999999, 0, 0, 0.9999999999999999, -8.881784197001252e-16, -8.881784197001252e-16)"/>
  <path class="cls-2" d="M27.54,12l-1.1-3.37L25.35,12Zm1.05,3.23,1.1,3.37L26.81,16.5Zm1.93,4.46L29,14.92,33,12H28L26.48,7.24,24.93,12h-5l4,2.93-1.54,4.76,4-2.94Z" style="fill: rgb(255, 255, 255);" transform="matrix(0.9999999999999999, 0, 0, 0.9999999999999999, -8.881784197001252e-16, -8.881784197001252e-16)"/>
  <path class="cls-2" d="M25,26.35l2.88-2.07-3.55,0Zm-2.75,2-2.87,2.07L20.44,27Zm-3.65,3.2,4-2.92,4,2.94L25.1,26.81l4-2.92-5,0-1.53-4.75-1.56,4.75H16.15l4,2.93Z" style="fill: rgb(255, 255, 255);" transform="matrix(0.9999999999999999, 0, 0, 0.9999999999999999, -8.881784197001252e-16, -8.881784197001252e-16)"/>
  <path class="cls-2" d="M8.05,26.36,5.18,24.28H8.73Zm2.75,2,2.88,2.08-1.1-3.37Zm3.66,3.21-4.05-2.93-4,2.95,1.53-4.75-4-2.92,5,0,1.53-4.76L12,23.87h4.93l-4,2.93Z" style="fill: rgb(255, 255, 255);" transform="matrix(0.9999999999999999, 0, 0, 0.9999999999999999, -8.881784197001252e-16, -8.881784197001252e-16)"/>
</svg>